<?xml version="1.0" encoding="UTF-8"?>
<svg version="1.1" xmlns="http://www.w3.org/2000/svg" width="780" height="286">
<path d="M0 0 C257.4 0 514.8 0 780 0 C780 94.38 780 188.76 780 286 C522.6 286 265.2 286 0 286 C0 191.62 0 97.24 0 0 Z " fill="#FDFDFD" transform="translate(0,0)"/>
<path d="M0 0 C0.94875 0.31324219 1.8975 0.62648438 2.875 0.94921875 C17.10931804 6.26731813 30.17297838 15.45847794 41 26 C42.03125 26.804375 43.0625 27.60875 44.125 28.4375 C48.32377327 32.17988487 51.60395755 36.53300641 55 41 C55.71542969 41.91652344 55.71542969 41.91652344 56.4453125 42.8515625 C62.57022774 50.97959468 66.25555501 60.61441403 70 70 C70.37382812 70.89589844 70.74765625 71.79179688 71.1328125 72.71484375 C76.49156151 86.23079959 76.35154406 100.06548843 76.03564453 114.37548828 C76.00430214 116.68323308 76.04574506 118.9712338 76.12109375 121.27734375 C76.14459947 145.1826572 62.19662988 168.43077375 47 186 C46.21625 187.03125 45.4325 188.0625 44.625 189.125 C25.27914356 210.31331896 -4.97010455 223.45679272 -33.42919922 225.21142578 C-37.03811234 225.34806396 -40.63863146 225.41442103 -44.25 225.4375 C-45.94539917 225.45272705 -45.94539917 225.45272705 -47.67504883 225.46826172 C-53.55672539 225.40605884 -58.54120908 224.90186695 -64.02783203 222.72021484 C-66.21785664 221.92044106 -68.32371249 221.5407656 -70.625 221.1875 C-97.97097286 216.00705172 -122.32406635 195.27571393 -137.57739258 172.89770508 C-142.17365517 165.94924314 -145.30157446 158.89831125 -148 151 C-148.49666149 149.70494634 -148.99548787 148.41072156 -149.49609375 147.1171875 C-159.47886275 120.45650543 -157.78259653 87.52934092 -146.75 61.5 C-134.26659726 34.13864463 -111.74571014 11.98534971 -83.48071289 1.39428711 C-75.79718536 -1.3318468 -68.01230652 -3.46384744 -60 -5 C-59.13632813 -5.185625 -58.27265625 -5.37125 -57.3828125 -5.5625 C-38.26169538 -8.03543893 -18.22481899 -6.08210351 0 0 Z " fill="#020303" transform="translate(196,37)"/>
<path d="M0 0 C13.06465017 -0.71531659 22.24560615 4.01522123 31.90625 12.41796875 C35.25594157 15.51990207 37.25717571 17.9247479 38.65625 22.29296875 C39.295625 21.65359375 39.935 21.01421875 40.59375 20.35546875 C41.05523437 19.90042969 41.51671875 19.44539063 41.9921875 18.9765625 C43.21070845 17.74373966 44.39955837 16.48139736 45.5703125 15.203125 C52.76143889 7.55438148 61.32607136 0.80166147 72.08984375 0.0546875 C84.72669785 -0.30029812 95.59835883 1.4021226 105.4375 10.02734375 C109.1212856 13.78895581 112.00904511 17.74988767 114.65625 22.29296875 C115.30787109 23.34291016 115.30787109 23.34291016 115.97265625 24.4140625 C120.72628283 33.70599459 120.16949069 46.91922688 117.80859375 56.86328125 C116.63197977 59.85467273 115.28021542 62.51967515 113.65625 65.29296875 C113.04007813 66.37964844 112.42390625 67.46632813 111.7890625 68.5859375 C107.86764167 75.21573264 103.53623023 81.34483834 98.65625 87.29296875 C98.01429688 88.10765625 97.37234375 88.92234375 96.7109375 89.76171875 C82.02172399 108.19099032 64.85554072 124.37930456 46.65625 139.29296875 C45.79386719 140.07285156 44.93148437 140.85273438 44.04296875 141.65625 C41.65625 143.29296875 41.65625 143.29296875 39.71459961 143.05932617 C37.45903191 142.21954121 36.13214503 141.26033999 34.3359375 139.66796875 C33.41663452 138.86202271 33.41663452 138.86202271 32.47875977 138.03979492 C31.83608154 137.46334229 31.19340332 136.88688965 30.53125 136.29296875 C29.86472412 135.70427002 29.19819824 135.11557129 28.51147461 134.5090332 C26.55388233 132.77679908 24.6047908 131.03536929 22.65625 129.29296875 C21.69074219 128.44089844 20.72523438 127.58882813 19.73046875 126.7109375 C14.51684648 122.08111119 9.53983654 117.2675538 4.65625 112.29296875 C2.13568025 109.76008352 -0.3960529 107.24207311 -2.95703125 104.75 C-12.73426906 95.17085384 -20.76246012 84.67193631 -28.34375 73.29296875 C-29.21580078 71.99166016 -29.21580078 71.99166016 -30.10546875 70.6640625 C-38.07011593 58.16538443 -40.73117316 44.55946009 -37.6484375 30.01171875 C-33.48088931 17.5440956 -25.16609528 8.23714724 -13.5390625 2.2265625 C-9.06381159 0.3233864 -4.7497511 0.4161581 0 0 Z " fill="#FDFDFD" transform="translate(116.34375,82.70703125)"/>
<path d="M0 0 C14.51705156 8.9621627 25.10456246 22.16533077 29.74609375 38.6953125 C33.76434504 59.40476147 31.40191413 80.45947876 19.69921875 98.08984375 C10.34780329 110.56463198 -3.61791258 120.1205714 -19.06640625 123.1328125 C-38.65914294 125.54218958 -56.286588 123.42412065 -72.73828125 111.96484375 C-74.71114042 110.30369633 -76.47969595 108.56636834 -78.25390625 106.6953125 C-78.98867188 105.97988281 -79.7234375 105.26445312 -80.48046875 104.52734375 C-93.25238796 91.43505867 -97.80389917 75.69458716 -97.62890625 57.7578125 C-97.64050781 56.57251953 -97.65210938 55.38722656 -97.6640625 54.16601562 C-97.60680624 36.76965582 -91.76186323 22.54178141 -79.72265625 10.0078125 C-71.40321778 2.21492077 -63.14197579 -2.89446195 -52.25390625 -6.3046875 C-50.62195313 -6.85189453 -50.62195313 -6.85189453 -48.95703125 -7.41015625 C-32.69827764 -11.33763998 -14.53033612 -7.84677582 0 0 Z " fill="#040404" transform="translate(683.25390625,93.3046875)"/>
<path d="M0 0 C9.9 0 19.8 0 30 0 C34.23329599 4.28756902 35.20241876 5.48240859 37.01074219 10.64990234 C39.14308794 15.71553911 42.47767335 20.18195706 45.5 24.75 C46.90684469 26.9367474 48.31044085 29.12558784 49.7109375 31.31640625 C50.42088867 32.42258301 51.13083984 33.52875977 51.86230469 34.66845703 C60.53340956 48.18215017 69.18569885 61.70798104 77.8125 75.25 C78.68382568 76.61644653 78.68382568 76.61644653 79.57275391 78.01049805 C80.11206543 78.85781494 80.65137695 79.70513184 81.20703125 80.578125 C81.91049683 81.68269043 81.91049683 81.68269043 82.62817383 82.80957031 C84.11704207 85.18688405 85.55680967 87.59468278 87 90 C87.33 60.3 87.66 30.6 88 0 C96.58 0 105.16 0 114 0 C114 42.9 114 85.8 114 130 C104.43 130 94.86 130 85 130 C75.01358009 117.56935144 75.01358009 117.56935144 72.4453125 111.984375 C69.23637163 105.34657727 65.48971727 99.27419525 61.4375 93.125 C60.34947339 91.42143196 59.26470719 89.71577611 58.18359375 88.0078125 C54.79095213 82.67067198 51.39556289 77.33528229 48 72 C46.83332281 70.16667336 45.66665612 68.33334004 44.5 66.5 C43.9225 65.5925 43.345 64.685 42.75 63.75 C37.5 55.5 37.5 55.5 35.77734375 52.78515625 C34.52881924 50.82867718 33.27008136 48.87869642 32.00390625 46.93359375 C31.04291016 45.45052734 31.04291016 45.45052734 30.0625 43.9375 C29.47597656 43.03902344 28.88945312 42.14054687 28.28515625 41.21484375 C27 39 27 39 27 37 C26.34 37 25.68 37 25 37 C25 67.36 25 97.72 25 129 C16.75 129 8.5 129 0 129 C0 86.43 0 43.86 0 0 Z " fill="#040404" transform="translate(317,86)"/>
<path d="M0 0 C8.98147885 6.57993969 15.34260969 15.8531727 19.27734375 26.2265625 C19.27734375 27.2165625 19.27734375 28.2065625 19.27734375 29.2265625 C15.27645682 29.47544531 11.2786071 29.65592685 7.27172852 29.77587891 C5.91220603 29.82590288 4.55321462 29.89395924 3.19555664 29.98095703 C-1.26954904 30.25971868 -5.36744615 30.30578421 -9.72265625 29.2265625 C-12.22075176 26.88988321 -13.66968985 24.63876907 -15.32788086 21.65820312 C-17.15299619 18.47631117 -19.19174656 17.21647033 -22.47265625 15.6640625 C-23.395625 15.20902344 -24.31859375 14.75398438 -25.26953125 14.28515625 C-33.85074261 10.58211759 -45.92359903 11.01927256 -54.72265625 14.2265625 C-65.05531156 18.56698063 -70.41519937 25.60000681 -74.77734375 35.7109375 C-78.82726192 46.4884057 -78.24043831 61.12828534 -73.9765625 71.69140625 C-68.82837989 82.10003713 -60.9692461 91.28300019 -49.72265625 95.2265625 C-46.22329274 95.76601884 -42.81993951 95.78772674 -39.28515625 95.7265625 C-38.39505859 95.74203125 -37.50496094 95.7575 -36.58789062 95.7734375 C-26.76278698 95.71602272 -18.94085638 91.76558844 -11.72265625 85.2265625 C-6.50959515 79.83747596 -5.80241131 74.85233105 -3.72265625 67.2265625 C-16.26265625 67.2265625 -28.80265625 67.2265625 -41.72265625 67.2265625 C-41.72265625 59.9665625 -41.72265625 52.7065625 -41.72265625 45.2265625 C-20.60265625 45.2265625 0.51734375 45.2265625 22.27734375 45.2265625 C22.27734375 73.69371578 22.27734375 73.69371578 16.27734375 85.2265625 C15.81070313 86.38929688 15.3440625 87.55203125 14.86328125 88.75 C8.64148975 102.38890256 -4.06732646 111.08821675 -17.72265625 116.2265625 C-24.92557908 118.85713888 -31.38427731 119.71367033 -39.03515625 119.6015625 C-40.04698975 119.59068604 -41.05882324 119.57980957 -42.10131836 119.56860352 C-59.44836533 119.19981351 -74.69109354 113.64456571 -87.02734375 101.25390625 C-102.48456878 84.60052141 -104.53572742 64.70372996 -103.85742188 43.06445312 C-103.10383799 27.19550562 -95.04622715 13.22232193 -83.53515625 2.55859375 C-58.33134704 -18.33956472 -26.67065194 -17.37227544 0 0 Z " fill="#050505" transform="translate(551.72265625,97.7734375)"/>
<path d="M0 0 C8.05439378 7.54569523 11.17915609 20.2000924 11.625 30.9375 C11.04855112 43.56173057 7.86949626 54.74794248 -1.3046875 63.7578125 C-5.27019187 67.05665237 -9.35465911 69.75930616 -14 72 C-15.10214844 72.55494141 -15.10214844 72.55494141 -16.2265625 73.12109375 C-25.07907245 75.92646662 -36.52879609 75.36069199 -44.8125 71.3125 C-46.5717615 70.2569431 -48.3067717 69.15852463 -50 68 C-51.093125 67.278125 -52.18625 66.55625 -53.3125 65.8125 C-63.24356517 55.41952482 -67.599876 43.71581879 -67.40478516 29.56445312 C-67.18962435 23.66929565 -66.42344078 18.42811329 -64 13 C-63.68289063 12.25878906 -63.36578125 11.51757812 -63.0390625 10.75390625 C-58.90099695 2.28701327 -51.61769465 -5.69219018 -42.83984375 -9.39453125 C-26.80222657 -14.67230336 -12.3607609 -10.55374453 0 0 Z " fill="#FCFCFC" transform="translate(678,120)"/>
</svg>
